<svg xmlns="http://www.w3.org/2000/svg" width="360" height="360" viewBox="0 0 360 360">
  <rect width="360" height="360" fill="#f7f4ed"/>
  <g fill="none" stroke="#cfd8dd" stroke-width="2" opacity="0.7">
    <path d="M42 64h72v72H42z"/>
    <path d="M246 44c34 0 62 28 62 62s-28 62-62 62-62-28-62-62 28-62 62-62z"/>
    <path d="M56 274h84m-42-42v84"/>
    <path d="M232 246l52 52m0-52l-52 52"/>
  </g>
  <g fill="#d99a22" opacity="0.45">
    <circle cx="104" cy="104" r="12"/>
    <circle cx="252" cy="106" r="12"/>
    <circle cx="98" cy="274" r="12"/>
    <circle cx="258" cy="272" r="12"/>
  </g>
  <g fill="#007f79" opacity="0.2">
    <rect x="154" y="168" width="52" height="18" rx="9"/>
    <rect x="171" y="151" width="18" height="52" rx="9"/>
  </g>
</svg>
